<?xml version="1.0" standalone="no"?>
<!DOCTYPE svg PUBLIC "-//W3C//DTD SVG 20010904//EN"
 "http://www.w3.org/TR/2001/REC-SVG-20010904/DTD/svg10.dtd">
<svg version="1.0" xmlns="http://www.w3.org/2000/svg"
 width="316.000000pt" height="316.000000pt" viewBox="0 0 316.000000 316.000000"
 preserveAspectRatio="xMidYMid meet">

<g transform="translate(0.000000,316.000000) scale(0.100000,-0.100000)"
fill="#000000" stroke="none">
<path d="M0 1580 l0 -1580 1580 0 1580 0 0 1580 0 1580 -1580 0 -1580 0 0
-1580z m780 865 l0 -55 55 0 55 0 0 55 0 55 230 0 230 0 0 -55 0 -55 60 0 60
0 0 55 0 55 58 0 57 0 0 -112 0 -113 58 -3 57 -3 0 -114 0 -115 115 0 115 0 0
-55 0 -55 115 0 115 0 0 -60 0 -60 175 0 175 0 0 115 0 115 60 0 60 0 0 -460
0 -460 -60 0 -60 0 0 -235 0 -235 -60 0 -60 0 0 -55 0 -55 -55 0 -55 0 0 170
0 170 -115 0 -114 0 -3 -112 -3 -113 -57 -3 -58 -3 0 -54 0 -55 -60 0 -61 0 1
170 c1 93 -1 170 -4 170 -3 0 -107 0 -231 0 l-225 0 0 -115 0 -115 -55 0 -55
0 0 -55 0 -55 -60 0 -60 0 0 170 0 170 -115 0 -115 0 0 -115 0 -115 -55 0 -55
0 0 -55 0 -55 -60 0 -60 0 0 230 0 230 -60 0 -60 0 2 578 3 577 58 3 57 3 0
169 0 170 60 0 60 0 0 -55z"/>
<path d="M780 2100 l0 -60 55 0 55 0 0 60 0 60 -55 0 -55 0 0 -60z"/>
<path d="M1127 2154 c-4 -4 -7 -31 -7 -61 l0 -53 60 0 61 0 -3 58 -3 57 -50 3
c-28 2 -54 0 -58 -4z"/>
<path d="M894 1921 c-2 -2 -4 -55 -4 -118 l0 -113 -55 0 -55 0 0 -55 0 -55
230 0 230 0 0 55 0 55 55 0 55 0 0 60 0 60 -55 0 -55 0 0 -60 0 -60 -115 0
-115 0 0 60 0 60 55 0 55 0 0 54 0 55 -111 3 c-61 2 -113 1 -115 -1z"/>
<path d="M662 1753 l3 -58 53 -3 52 -3 0 60 0 61 -55 0 -56 0 3 -57z"/>
</g>
</svg>
