<?xml version="1.0" encoding="UTF-8"?>
<svg xmlns="http://www.w3.org/2000/svg" width="64" height="64" version="1.0" viewBox="0 0 900 900">
	<path d="M0 450v450h900V0H0v450zm218.8-260.8c.8.8 1.2 5.7 1.2 15.4 0 9.2.4 14.5 1.1 15 1.2.7 29.9.7 30.6 0 .3-.3.4-6.6.4-14-.1-8.1.3-14.4.9-15.6 1.1-2 1.9-2 65.5-2 44 0 64.6.3 65 1.1.4.5.6 7.5.6 15.5-.2 13.5 0 14.5 1.8 15.2 1.1.4 8.4.5 16.3.2l14.3-.5.3-14.6c.2-10.9.6-15 1.6-15.8.9-.8 6.3-1.1 16.2-.9l14.9.3.5 31.7c.3 17.4.8 32 1.3 32.4.4.4 6.8.7 14.2.5 8.4-.1 14.1.2 15.4.9 2.1 1 2.1 1.7 2.1 31.5 0 16.7.3 31 .6 31.9.5 1.4 4.3 1.6 31.9 1.6 24.7 0 31.5.3 32.3 1.3.7.8 1.3 7.3 1.4 16.3l.3 14.9 31.4.3c20.8.1 31.9.6 32.7 1.3 1 .8 1.4 5.3 1.6 16.3l.3 15.1h97l.3-31.4c.1-21.2.6-31.9 1.3-32.8.9-1 4.8-1.3 16-1.3 13.6 0 14.9.2 15.9 1.9 1.6 3 1.4 259.3-.2 260.9-.8.8-5.6 1.2-14.9 1.2-7.6 0-14.4.3-15.3.6-1.4.6-1.6 7.2-1.6 64.3 0 49.4-.3 64.1-1.2 65.4-1.1 1.4-3.6 1.7-16.3 1.9l-15 .3-.2 14c-.4 20.6 1.5 18.5-16.8 18.5-11.2 0-15.6-.3-16.2-1.3-.4-.6-1-22.8-1.3-49.2l-.5-48-30.9-.3c-21.9-.2-31.3.1-32.2.9-1.1.9-1.4 7.1-1.4 31.9 0 24.2-.3 31-1.3 31.8-.8.7-7.3 1.3-16.3 1.4l-14.9.3-.5 16-.5 16-14 .3c-7.7.1-15 0-16.2-.3l-2.3-.5v-47.8c0-35.8-.3-48.1-1.2-49-1.8-1.8-128.3-1.7-129.5 0-.4.7-1 15.5-1.3 32.8l-.5 31.5-15.5.5-15.5.5-.3 14.9c-.1 9-.7 15.5-1.4 16.3-1.4 1.8-29.8 1.9-31.6.1-.9-.9-1.2-13-1.2-48.3s-.3-47.4-1.2-48.3c-1.7-1.7-60.9-1.7-62.6 0-.9.9-1.2 9.4-1.2 31.9 0 24.2-.3 30.9-1.3 31.7-.8.7-7.3 1.3-16.3 1.4l-14.9.3-.3 14.9c-.1 9.1-.7 15.5-1.4 16.3-.8 1-4.5 1.3-16.2 1.1l-15.1-.3-.3-64.4c-.1-45.6-.5-64.8-1.3-65.8-.9-1-4.8-1.3-15.8-1.3-10.1 0-15.1-.4-15.9-1.2-1.5-1.5-1.7-324.4-.2-326.8.7-1.2 4.2-1.6 16.7-2l15.8-.5.3-47.5c.1-26.1.4-48.1.7-48.8.6-1.7 29.6-1.7 31.3 0z" />
	<path d="M220.4 288.3c-.2.7-.3 7.8-.2 15.7l.3 14.5h31v-31l-15.3-.3c-11.9-.2-15.4 0-15.8 1.1zM319.2 288.9c-.4 1.1-.5 8.2-.2 15.8l.5 13.8h31v-31l-15.3-.3c-14.3-.2-15.3-.1-16 1.7zM253.6 354.6c-.3.9-.6 15.2-.6 31.9 0 29.5-.1 30.5-2 31.5-1.2.6-7.5 1.1-15.3 1-7.2-.1-13.8-.1-14.5-.1-1 .1-1.2 3.6-1 15.8l.3 15.8h130l.3-15.8.3-15.7h-31.3c-17.9 0-31.9-.4-32.8-1-1.2-.7-1.6-3.7-1.8-14.2-.2-7.6.1-14.5.7-16l1-2.7 15.3-.3 15.3-.3.3-13.5c.1-7.4 0-14.5-.3-15.8l-.5-2.2h-31.4c-27.7 0-31.5.2-32 1.6zM188.3 386.8c-.9 1-1.3 5-1.3 14.7 0 7.3.3 14 .6 14.9.5 1.4 2.9 1.6 16 1.6H219l.1-13.8c.1-13.8 0-17.4-.7-18.1-.2-.2-6.7-.4-14.5-.5-10.6-.1-14.6.2-15.6 1.2zM352.9 386.4c-.5.6-.9 7.9-.9 16.3V418h15.4c13.1 0 15.5-.2 16-1.6 1.1-2.9.7-29.2-.5-30-1.7-1-28.9-1-30 0z" />
</svg>
